<?xml version="1.0" encoding="iso-8859-1"?>
<!-- Generator: Adobe Illustrator 19.0.0, SVG Export Plug-In . SVG Version: 6.00 Build 0)  -->
<svg version="1.1" id="Layer_1" xmlns="http://www.w3.org/2000/svg" xmlns:xlink="http://www.w3.org/1999/xlink" x="0px" y="0px"
	 viewBox="0 0 512.001 512.001" style="enable-background:new 0 0 512.001 512.001;" xml:space="preserve">
<g>
	<g>
		<g>
			<path d="M453.404,181.939c-3.098-5.362-7.894-8.437-13.16-8.437c-0.001,0-0.002,0-0.002,0
				c-5.266,0.001-10.062,3.077-13.156,8.438l-10.156,17.589c-2.241,3.881-0.911,8.844,2.97,11.085
				c3.878,2.241,8.843,0.911,11.085-2.97l9.26-16.039l9.77,16.923c1.503,2.603,4.23,4.059,7.035,4.059
				c1.376,0,2.771-0.351,4.05-1.088c3.881-2.241,5.211-7.204,2.97-11.085L453.404,181.939z"/>
			<path d="M495.884,217.6l-37.091-64.242c-4.508-7.809-11.27-12.289-18.55-12.289c-7.28,0-14.04,4.48-18.547,12.289l-24.316,42.113
				h-36.003l-24.315-42.113c-4.507-7.811-11.268-12.29-18.548-12.29c-7.28,0-14.042,4.48-18.548,12.289l-22.015,38.132
				c-14.98-3.785-30.431-5.704-46.026-5.705c-37.735,0-74.382,11.386-105.272,32.395V109.065c0-34.919-28.409-63.327-63.326-63.327
				C28.409,45.737,0,74.146,0,109.065v150.645c0,16.737,6.469,32.52,18.212,44.442c9.219,9.357,20.865,15.483,33.533,17.814
				c-2.176,7.679-3.871,15.517-5.047,23.476c-0.012,0.085-0.023,0.171-0.034,0.258c-0.14,1.214-0.21,2.448-0.21,3.669v93.523
				c0,12.887,10.484,23.372,23.371,23.372h53.071c3.359,0,6.47-1.067,9.031-2.867c3.387,1.851,7.226,2.867,11.208,2.867h53.07
				c8.68,0,15.743-7.062,15.743-15.742v-7.629c0-12.887-10.484-23.37-23.371-23.37h-2.938v-25.467
				c5.22-3.815,10.045-8.142,14.421-12.909h27.014v61.743c0,12.887,10.485,23.372,23.373,23.372h53.068
				c3.359,0,6.469-1.067,9.03-2.866c3.385,1.851,7.224,2.866,11.207,2.866h53.073c8.68,0,15.743-7.062,15.743-15.742v-7.629
				c0-12.887-10.484-23.37-23.371-23.37h-2.939v-27.846c4.271,0.872,8.661,1.326,13.122,1.326c17.346,0,33.653-6.756,45.919-19.02
				l67.665-67.633c12.276-12.268,19.036-28.582,19.036-45.935C512,244.618,506.284,229.452,495.884,217.6z M16.229,109.065
				c0-25.97,21.128-47.098,47.098-47.098s47.097,21.128,47.097,47.098v1.825H16.229V109.065z M16.229,127.119h94.196v35.293H16.229
				V127.119z M16.229,178.64h94.196v35.293H16.229V178.64z M16.486,264.577v-0.001c-0.168-1.601-0.256-3.224-0.256-4.868v-29.546
				h94.196v0.407c-0.458,0.391-0.921,0.774-1.375,1.17c-11.264,9.805-21.23,20.846-29.759,32.838H16.486z M21.285,280.805h47.674
				c-4.646,8.199-8.673,16.739-12.034,25.55C41.35,304.209,28.145,294.343,21.285,280.805z M122.409,450.034H69.825
				c-3.938,0-7.142-3.204-7.142-7.143v-7.141h52.584c3.938,0,7.143,3.204,7.143,7.141V450.034z M112.329,419.521v-25.466
				c2.574-1.883,5.053-3.892,7.433-6.017v31.921c-1.456-0.285-2.957-0.438-4.495-0.438H112.329z M188.576,435.75
				c3.938,0,7.142,3.204,7.142,7.141v7.143h-52.583c-1.663,0-3.238-0.586-4.497-1.609v-5.534c0-2.491-0.395-4.888-1.12-7.141
				H188.576z M135.991,419.522v-0.001v-38.372h39.792c-0.905,0.655-1.818,1.297-2.749,1.916c-2.265,1.504-3.626,4.041-3.626,6.76
				v29.697H135.991z M303.028,450.034h-52.583c-3.939,0-7.144-3.204-7.144-7.143v-7.141h52.586c3.937,0,7.141,3.204,7.141,7.141
				V450.034z M292.95,419.521v-38.372h7.433v38.81c-1.456-0.285-2.957-0.438-4.494-0.438H292.95z M284.836,364.919v-0.001
				c-4.483,0-8.115,3.633-8.115,8.115v46.487h-33.418v-46.487c0-4.481-3.632-8.115-8.115-8.115H123.093
				c-2.381,0-4.643,1.046-6.185,2.862c-5.004,5.892-10.786,11.035-17.182,15.284c-2.265,1.504-3.626,4.041-3.626,6.76v29.697H62.684
				v-70.153c0-0.564,0.03-1.132,0.091-1.693c5.958-40.102,26.172-76.923,56.931-103.694c31.093-27.062,70.948-41.966,112.222-41.966
				c12.698,0.001,25.282,1.409,37.55,4.156l-6.584,11.403c-22.581,25.676-21.38,64.493,2.891,88.764l58.61,58.582H284.836z
				 M267.998,281.945c14.308-18.253,36.247-29.028,59.547-29.028c10.339,0,18.749,8.411,18.749,18.749
				c0,10.338-8.41,18.749-18.749,18.749c-14.77,0-28.699,5.515-39.381,15.345l-10.906-10.902
				C273.383,290.983,270.301,286.609,267.998,281.945z M316.612,381.147h25.37c2.573,1.821,5.26,3.442,8.048,4.857v33.515h-33.417
				V381.147z M369.196,435.75c3.938,0,7.142,3.204,7.142,7.141v7.143h-52.586c-1.662,0-3.237-0.586-4.494-1.609v-5.534
				c0-2.491-0.395-4.888-1.12-7.141H369.196z M481.491,294.87l-10.896,10.892c-10.681-9.831-24.611-15.346-39.381-15.346
				c-10.339,0-18.749-8.411-18.749-18.749s8.41-18.749,18.749-18.749c23.302,0,45.244,10.776,59.551,29.032
				C488.433,286.672,485.327,291.036,481.491,294.87z M495.69,263.147c-17.043-16.791-40.148-26.46-64.475-26.46
				c-19.287,0-34.978,15.691-34.978,34.978c0,19.287,15.691,34.978,34.978,34.978c10.415,0,20.259,3.795,27.898,10.594
				l-45.286,45.264c-9.202,9.201-21.436,14.269-34.446,14.269c-13.012,0-25.244-5.067-34.446-14.27l-45.286-45.264
				c7.639-6.799,17.483-10.593,27.898-10.593c19.287,0,34.978-15.691,34.978-34.978c0-19.287-15.691-34.978-34.978-34.978
				c-24.333,0-47.443,9.673-64.487,26.471c-0.711-12.553,3.411-25.346,12.467-35.369c0.383-0.424,0.721-0.887,1.006-1.383
				l37.492-64.935c1.663-2.882,3.455-4.173,4.491-4.173c1.038,0,2.828,1.291,4.493,4.174l26.657,46.17
				c1.45,2.51,4.128,4.057,7.027,4.057h45.373c2.9,0,5.577-1.547,7.027-4.057l26.659-46.172c1.663-2.883,3.454-4.173,4.49-4.173
				c1.038,0,2.829,1.291,4.494,4.174l37.505,64.959c0.285,0.493,0.62,0.954,1.001,1.377c8.079,8.958,12.527,20.537,12.527,32.606
				C495.771,261.329,495.738,262.24,495.69,263.147z"/>
			<path d="M331.676,181.941c-3.095-5.363-7.892-8.439-13.158-8.439c-0.001,0-0.001,0-0.001,0c-5.267,0-10.064,3.075-13.161,8.438
				l-10.666,18.474c-2.241,3.881-0.911,8.844,2.97,11.085c1.279,0.738,2.673,1.088,4.05,1.088c2.804,0,5.532-1.456,7.035-4.059
				l9.77-16.923l9.26,16.039c2.242,3.882,7.207,5.21,11.085,2.97c3.881-2.241,5.211-7.204,2.97-11.085L331.676,181.941z"/>
			<circle cx="327.545" cy="271.666" r="8.933"/>
			<circle cx="431.214" cy="271.666" r="8.933"/>
			<path d="M371.238,307.586v0.001c-3.995,0-7.751,1.556-10.574,4.38c-2.824,2.824-4.38,6.579-4.38,10.573
				c0,3.995,1.557,7.75,4.381,10.574l8.143,8.139c2.825,2.824,6.579,4.379,10.572,4.379c3.997,0,7.753-1.556,10.572-4.378
				l8.146-8.141c2.824-2.824,4.38-6.579,4.38-10.574c0-8.246-6.707-14.954-14.951-14.954H371.238z M379.38,328.875l-5.061-5.059
				h10.124L379.38,328.875z"/>
		</g>
	</g>
</g>
<g>
</g>
<g>
</g>
<g>
</g>
<g>
</g>
<g>
</g>
<g>
</g>
<g>
</g>
<g>
</g>
<g>
</g>
<g>
</g>
<g>
</g>
<g>
</g>
<g>
</g>
<g>
</g>
<g>
</g>
</svg>
